<svg xmlns="http://www.w3.org/2000/svg" width="21" height="19" viewBox="0 0 21 19">
    <g fill="none" stroke-linecap="round" stroke-linejoin="round">
        <path d="M16.557 8.944l1.424-6.028A.75.75 0 0 0 17.25 2H4.975L4.689.6a.75.75 0 0 0-.735-.6H.75A.75.75 0 0 0 0 .75v.5A.75.75 0 0 0 .75 2h2.184l2.2 10.732a1.75 1.75 0 1 0 2.1.268h6.551a1.75 1.75 0 1 0 1.987-.325l.172-.759A.75.75 0 0 0 15.2 11H6.816s-.656-.031-.74-.594.553-.741.553-.741h9.084a1.023 1.023 0 0 0 .844-.721z" transform="translate(1.5 1.5)"/>
        <path fill="#2d2b52" d="M15 16c.967 0 1.75-.783 1.75-1.75 0-.693-.403-1.292-.987-1.575l.173-.759c.106-.47-.25-.916-.732-.916H6.816s-.655-.031-.74-.594c-.084-.562.553-.74.553-.74h9.085c.35 0 .766-.38.843-.722l1.424-6.028c.107-.47-.25-.916-.731-.916H4.975L4.69.6C4.617.25 4.31 0 3.954 0H.75C.336 0 0 .336 0 .75v.5c0 .414.336.75.75.75h2.184l2.195 10.732c-.525.302-.879.869-.879 1.518 0 .967.784 1.75 1.75 1.75.967 0 1.75-.783 1.75-1.75 0-.49-.201-.932-.526-1.25h6.552c-.325.318-.526.76-.526 1.25 0 .967.784 1.75 1.75 1.75m0 1.5c-1.708 0-3.112-1.324-3.24-3H9.24c-.128 1.676-1.532 3-3.24 3-1.792 0-3.25-1.458-3.25-3.25 0-.76.269-1.486.737-2.059L1.71 3.5H.75C-.49 3.5-1.5 2.49-1.5 1.25v-.5C-1.5-.49-.49-1.5.75-1.5h3.204c1.064 0 1.991.757 2.204 1.8L6.2.5h11.05c.689 0 1.33.308 1.76.846.428.538.587 1.232.435 1.903l-.003.012-1.423 6.023c-.12.524-.443.998-.866 1.34.258.442.356.959.276 1.47.518.586.822 1.352.822 2.156 0 1.792-1.458 3.25-3.25 3.25z" transform="translate(1.5 1.5)"/>
    </g>
</svg>
