<svg xmlns="http://www.w3.org/2000/svg" width="20.7" height="19.904" viewBox="0 0 20.7 19.904">
    <g fill="#fff" stroke-linecap="round" stroke-linejoin="round">
        <path d="M13.725 23.656c-.678-.5-5.12-3.849-7.85-7.58-1.428-1.952-2.35-4.51-2.35-6.516 0-1.453.564-2.821 1.588-3.853 1.023-1.03 2.385-1.605 3.837-1.62h.048c1.853 0 3.574.942 4.602 2.52l.125.193.126-.193c1.028-1.578 2.748-2.52 4.601-2.52h.05c1.45.015 2.813.59 3.835 1.62 1.024 1.032 1.588 2.4 1.588 3.853 0 2.007-.922 4.564-2.35 6.515-2.73 3.732-7.172 7.08-7.85 7.58zM8.962 5.186h-.005c-1.162.01-2.252.47-3.071 1.293-.818.828-1.268 1.922-1.268 3.081 0 1.467.662 3.85 2.14 5.866 2.17 2.972 5.53 5.733 6.875 6.782l.092.072.093-.072c1.672-1.306 4.79-3.922 6.875-6.777 1.47-2.012 2.139-4.398 2.15-5.87 0-1.165-.451-2.26-1.269-3.082-.818-.824-1.909-1.283-3.07-1.293h-.047c-.74 0-1.472.192-2.118.557-.63.356-1.171.863-1.565 1.466-.232.353-.623.564-1.044.564-.421 0-.811-.21-1.044-.564-.385-.598-.926-1.106-1.564-1.466-.647-.365-1.38-.557-2.12-.557h-.039z" transform="translate(-3.375 -3.938)"/>
        <path d="M8.95 4.237c-1.411.014-2.736.574-3.73 1.576-.997 1.003-1.545 2.334-1.545 3.747 0 1.977.91 4.5 2.32 6.427 2.618 3.578 6.824 6.806 7.73 7.482.907-.676 5.112-3.904 7.73-7.482 1.41-1.928 2.32-4.45 2.32-6.427 0-1.413-.548-2.744-1.544-3.747-.995-1.002-2.32-1.562-3.729-1.576h-.05c-1.802 0-3.475.917-4.475 2.452-.056.085-.15.136-.252.136-.101 0-.196-.051-.251-.136-1-1.535-2.674-2.452-4.476-2.452H8.95m4.78 3.386c.37 0 .714-.185.918-.496.407-.623.966-1.147 1.617-1.515.669-.377 1.427-.576 2.192-.576h.048c1.201.01 2.33.485 3.176 1.337.845.851 1.311 1.983 1.311 3.19-.01 1.495-.688 3.918-2.178 5.957-2.096 2.869-5.225 5.496-6.904 6.807-.054.042-.12.063-.185.063s-.13-.021-.184-.063c-1.35-1.054-4.723-3.826-6.905-6.812C5.14 13.47 4.468 11.05 4.468 9.56c0-1.199.466-2.33 1.312-3.187.846-.852 1.974-1.327 3.175-1.337h.048c.765 0 1.524.199 2.193.576.659.373 1.218.897 1.615 1.514.205.312.549.497.92.497M8.947 3.937h.05c1.975 0 3.722 1.045 4.727 2.588 1.005-1.543 2.752-2.588 4.727-2.588h.05c3.08.03 5.573 2.533 5.573 5.623 0 1.842-.806 4.454-2.378 6.604-2.996 4.095-7.972 7.678-7.972 7.678s-4.976-3.583-7.971-7.678c-1.573-2.15-2.379-4.762-2.379-6.604 0-3.09 2.493-5.593 5.573-5.623zm4.782 3.986c-.473 0-.91-.239-1.17-.632-.377-.587-.905-1.074-1.512-1.418-.627-.353-1.333-.537-2.045-.537h-.045c-1.124.01-2.174.453-2.966 1.249-.786.796-1.224 1.85-1.224 2.975 0 1.444.652 3.787 2.11 5.778 2.12 2.9 5.35 5.583 6.847 6.752 1.498-1.17 4.727-3.846 6.847-6.747 1.458-1.996 2.11-4.34 2.12-5.783 0-1.12-.433-2.18-1.224-2.975-.791-.796-1.846-1.24-2.966-1.25h-.045c-.711 0-1.418.185-2.045.538-.607.344-1.13.831-1.512 1.418-.26.393-.697.632-1.17.632z" transform="translate(-3.375 -3.938)"/>
    </g>
</svg>
