<svg xmlns="http://www.w3.org/2000/svg" width="19.131" height="19.131" viewBox="0 0 19.131 19.131">
    <g fill="none" stroke-linecap="round" stroke-linejoin="round">
        <g>
            <path d="M20.5 12.5a8 8 0 1 1-8-8 8 8 0 0 1 8 8z" transform="translate(-4.5 -4.5)"/>
            <path fill="#2d2b52" d="M12.5 6.1c-3.529 0-6.4 2.871-6.4 6.4 0 3.529 2.871 6.4 6.4 6.4 3.529 0 6.4-2.871 6.4-6.4 0-3.529-2.871-6.4-6.4-6.4m0-1.6c4.418 0 8 3.582 8 8s-3.582 8-8 8-8-3.582-8-8 3.582-8 8-8z" transform="translate(-4.5 -4.5)"/>
        </g>
        <path stroke="#2d2b52" stroke-width="1.6px" d="M29.325 29.325l-4.35-4.35" transform="translate(-11.325 -11.325)"/>
    </g>
</svg>
